<?xml version="1.0" standalone="no"?>
<!DOCTYPE svg PUBLIC "-//W3C//DTD SVG 20010904//EN"
 "http://www.w3.org/TR/2001/REC-SVG-20010904/DTD/svg10.dtd">
<svg version="1.0" xmlns="http://www.w3.org/2000/svg"
 width="420.000000pt" height="420.000000pt" viewBox="0 0 420.000000 420.000000"
 preserveAspectRatio="xMidYMid meet">

<g transform="translate(0.000000,420.000000) scale(0.100000,-0.100000)"
fill="#000000" stroke="none">
<path d="M1925 3434 c-66 -47 -129 -92 -139 -100 -11 -7 -18 -16 -15 -18 2 -3
45 25 95 62 49 37 111 82 137 100 l46 33 141 -102 c78 -55 143 -99 145 -97 4
4 -279 208 -287 208 -2 0 -57 -39 -123 -86z"/>
<path d="M1915 3324 c-71 -52 -141 -102 -155 -112 -62 -42 -208 -148 -242
-174 l-38 -30 0 -401 1 -402 160 -115 c89 -63 196 -140 238 -171 42 -30 97
-70 123 -88 l47 -34 176 127 c97 69 180 124 186 121 5 -4 9 0 9 7 1 7 33 36
72 63 39 28 84 61 100 73 l28 24 0 397 c0 377 -1 397 -19 413 -29 25 -549 398
-553 398 -2 -1 -61 -44 -133 -96z m269 -12 c67 -49 153 -111 191 -138 39 -27
88 -62 111 -79 22 -16 59 -43 82 -60 l42 -30 0 -397 0 -397 -94 -65 c-92 -65
-116 -76 -116 -56 0 37 -120 120 -174 120 -15 0 -26 7 -28 18 -2 9 -11 -12
-20 -48 -9 -35 -15 -66 -13 -68 2 -3 7 7 11 22 8 33 13 33 47 -3 16 -18 53
-38 92 -51 36 -12 65 -25 64 -28 0 -9 -309 -226 -327 -230 -7 -2 -20 2 -28 9
-12 9 -12 15 -2 28 12 14 11 14 -4 3 -19 -15 2 -28 -362 231 l-166 118 0 398
0 399 73 50 c39 29 162 117 272 196 110 80 206 145 214 145 8 1 68 -39 135
-87z m90 -1126 c37 -16 102 -70 117 -98 10 -19 8 -19 -23 -13 -49 10 -120 43
-145 67 -49 46 -11 53 40 8 19 -16 38 -30 43 -30 15 0 -41 53 -71 66 -41 18
-5 18 39 0z"/>
<path d="M1866 3088 c-9 -12 -16 -33 -16 -47 l0 -24 -26 27 c-42 41 -58 35
-50 -20 l6 -46 -25 16 c-35 23 -38 21 -31 -27 7 -43 7 -44 -22 -39 -17 2 -33
-2 -40 -11 -10 -12 0 -26 56 -78 37 -35 83 -71 102 -80 19 -9 65 -31 103 -48
73 -34 93 -57 127 -151 11 -30 25 -64 30 -75 8 -16 8 -15 4 8 -5 22 -3 27 13
27 39 0 123 52 152 93 45 67 66 157 52 217 -11 45 -12 41 -15 -56 -2 -85 -25
-142 -78 -191 -25 -24 -88 -53 -113 -53 -27 0 19 56 71 86 25 15 43 29 40 31
-9 9 -93 -46 -115 -74 -18 -25 -20 -26 -21 -8 0 31 34 79 86 121 66 53 124
112 124 127 0 7 -11 -2 -25 -20 -14 -17 -54 -54 -90 -82 -35 -28 -75 -69 -87
-91 l-23 -39 -26 51 -26 52 35 45 c67 88 102 198 88 276 -7 37 -25 45 -46 20
-16 -19 -31 -19 -24 0 3 8 -1 24 -9 35 -13 19 -16 20 -30 5 -14 -14 -17 -13
-29 12 -13 27 -38 43 -38 24 0 -5 -5 -22 -11 -38 l-11 -28 -12 34 c-15 43 -30
49 -50 19z m40 -25 c8 -21 18 -69 20 -108 3 -38 9 -88 14 -110 5 -22 8 -41 6
-42 -5 -5 -86 205 -86 225 0 23 17 72 25 72 2 0 12 -17 21 -37z m74 11 c7 -18
6 -68 -2 -158 l-12 -131 -13 65 c-15 81 -16 163 -2 213 12 44 16 46 29 11z
m-153 -46 c14 -17 113 -249 104 -244 -19 12 -123 169 -136 206 -21 58 -20 73
3 61 10 -5 24 -16 29 -23z m213 -38 c0 -70 -22 -200 -41 -243 -14 -32 -3 239
12 281 18 52 29 37 29 -38z m74 -48 c-9 -81 -50 -180 -89 -212 -19 -16 -19
-14 4 70 11 38 23 95 26 127 5 38 15 66 28 81 21 23 21 23 29 2 4 -11 5 -42 2
-68z m-321 1 c5 -7 31 -43 58 -78 27 -36 46 -65 42 -65 -11 0 -153 139 -153
149 0 5 -3 18 -7 28 -7 17 -6 17 22 -1 17 -11 34 -25 38 -33z m-21 -60 c70
-58 188 -166 184 -170 -2 -2 -41 14 -87 37 -83 39 -170 104 -189 141 -18 32
50 26 92 -8z"/>
<path d="M1696 2648 c17 -18 53 -64 80 -101 60 -83 100 -111 235 -161 57 -22
107 -44 111 -50 13 -18 9 17 -8 73 -8 29 -17 51 -19 49 -2 -2 2 -25 10 -51 8
-26 10 -47 5 -47 -23 0 -42 15 -54 44 -43 103 -237 253 -351 270 l-40 7 31
-33z m109 -21 c80 -40 183 -129 220 -192 16 -25 11 -23 -31 16 -48 45 -106 89
-118 89 -17 0 -1 -18 37 -42 40 -26 128 -108 115 -108 -15 0 -164 72 -182 88
-17 15 -111 138 -130 170 -10 17 34 7 89 -21z"/>
<path d="M2196 2510 c-20 -51 -21 -123 -1 -181 14 -40 21 -47 63 -62 54 -19
110 -15 153 10 33 20 35 26 14 43 -12 10 -12 16 -4 26 17 20 3 65 -18 57 -13
-5 -15 -1 -11 20 4 20 0 27 -17 31 -14 4 -22 13 -21 23 1 13 -8 19 -31 21 -20
2 -33 9 -33 17 0 20 -20 29 -33 16 -8 -8 -15 -7 -28 5 -15 14 -18 11 -33 -26z
m34 -16 c0 -62 -23 -169 -31 -148 -18 46 -2 184 21 184 6 0 10 -16 10 -36z
m47 3 c-3 -17 -12 -48 -21 -67 -16 -35 -16 -35 -12 -5 12 83 18 105 28 105 6
0 9 -13 5 -33z m63 -18 c0 -6 -13 -27 -30 -47 -16 -20 -39 -48 -50 -62 -19
-24 -19 -23 2 35 12 33 28 66 37 73 18 15 41 16 41 1z m37 -45 c9 -25 -6 -42
-76 -81 l-63 -35 52 66 c52 66 75 80 87 50z m43 -57 c0 -22 -32 -43 -82 -56
-82 -19 -85 -12 -13 29 75 42 95 48 95 27z m0 -67 c12 -7 7 -12 -22 -25 -40
-16 -87 -19 -128 -8 -21 6 -15 10 40 24 78 20 91 22 110 9z"/>
<path d="M2127 2307 c-3 -8 -1 -20 4 -28 6 -10 9 -7 9 14 0 29 -5 35 -13 14z"/>
<path d="M1767 2254 c11 -16 34 -56 51 -89 17 -33 45 -74 64 -92 37 -36 131
-83 166 -83 12 0 22 -5 22 -12 0 -6 9 -3 21 8 25 22 74 103 67 110 -3 2 -11
-9 -18 -25 -12 -30 -40 -61 -40 -45 0 5 7 31 15 58 8 27 15 56 14 65 0 9 -9
-15 -20 -54 -11 -38 -22 -71 -24 -73 -2 -2 -15 21 -30 51 -46 97 -162 186
-264 202 l-44 7 20 -28z m108 -19 c58 -25 137 -100 165 -156 11 -21 20 -41 20
-44 0 -3 -27 15 -61 40 -53 39 -89 55 -89 41 0 -2 24 -18 53 -34 60 -34 110
-82 85 -82 -22 0 -84 27 -129 57 -37 24 -63 59 -123 166 l-27 48 28 -7 c15 -4
51 -17 78 -29z"/>
<path d="M2126 2203 c-4 -9 -2 -21 4 -27 7 -7 10 -2 10 17 0 31 -5 34 -14 10z"/>
<path d="M1612 3210 c-78 -56 -144 -106 -148 -112 -7 -11 68 40 206 141 84 61
96 71 89 71 -4 0 -70 -45 -147 -100z"/>
<path d="M2350 3303 c0 -5 74 -62 165 -126 l165 -118 3 -452 2 -452 3 452 2
452 -42 34 c-24 18 -81 60 -128 92 -47 32 -104 74 -127 92 -24 19 -43 31 -43
26z"/>
<path d="M1426 3075 c-11 -8 -15 -15 -9 -15 6 0 16 7 23 15 16 19 11 19 -14 0z"/>
<path d="M1415 2150 c3 -5 8 -10 11 -10 2 0 4 5 4 10 0 6 -5 10 -11 10 -5 0
-7 -4 -4 -10z"/>
<path d="M2640 2129 c-22 -18 -22 -19 -3 -10 12 6 25 16 28 21 9 15 3 12 -25
-11z"/>
<path d="M1444 2131 c4 -6 16 -16 28 -22 15 -8 18 -8 14 0 -4 6 -16 16 -28 22
-15 8 -18 8 -14 0z"/>
<path d="M2589 2093 c-13 -16 -12 -17 4 -4 16 13 21 21 13 21 -2 0 -10 -8 -17
-17z"/>
<path d="M1525 2075 c30 -26 65 -49 65 -42 0 2 -21 18 -47 36 -36 25 -41 26
-18 6z"/>
<path d="M2495 2029 c-178 -127 -254 -185 -215 -164 29 16 280 197 286 206 8
14 4 11 -71 -42z"/>
<path d="M1630 2003 c0 -5 11 -15 23 -23 12 -9 47 -34 77 -55 30 -22 51 -34
47 -28 -10 16 -147 115 -147 106z"/>
<path d="M1790 1887 c0 -3 12 -12 26 -22 15 -9 23 -12 20 -6 -7 11 -46 35 -46
28z"/>
<path d="M2180 1804 c-99 -73 -124 -100 -35 -39 63 43 127 96 115 94 -3 0 -39
-25 -80 -55z"/>
<path d="M1855 1842 c21 -22 170 -130 174 -126 5 5 4 6 -109 84 -41 29 -70 48
-65 42z"/>
<path d="M2050 1710 c-9 -6 -10 -10 -3 -10 6 0 15 5 18 10 8 12 4 12 -15 0z"/>
<path d="M830 1530 c0 -5 5 -10 10 -10 6 0 10 -32 10 -75 0 -43 -4 -75 -10
-75 -5 0 -10 -4 -10 -10 0 -5 20 -10 45 -10 44 0 60 12 30 24 -8 3 -15 17 -15
31 0 20 5 25 25 25 26 0 65 31 65 53 0 7 -7 23 -16 35 -13 19 -24 22 -75 22
-33 0 -59 -4 -59 -10z m95 -45 c0 -43 -29 -40 -33 3 -3 28 0 33 15 30 13 -2
18 -12 18 -33z"/>
<path d="M1000 1530 c0 -5 5 -10 10 -10 6 0 10 -32 10 -75 0 -43 -4 -75 -10
-75 -5 0 -10 -4 -10 -10 0 -5 18 -10 40 -10 22 0 40 5 40 10 0 6 -4 10 -10 10
-5 0 -10 14 -10 30 0 40 9 38 43 -9 27 -39 28 -39 92 -40 58 0 85 11 53 21 -7
3 -9 12 -5 22 5 13 16 16 39 14 29 -3 33 -6 31 -30 -2 -26 1 -28 38 -28 41 0
49 9 25 29 -7 6 -26 45 -42 86 -16 41 -33 75 -39 75 -6 0 -29 -37 -50 -82 -25
-52 -47 -84 -58 -86 -10 -2 -30 10 -48 29 l-30 32 21 19 c24 22 26 51 4 72
-18 18 -134 23 -134 6z m100 -14 c0 -2 3 -11 6 -19 5 -15 -20 -47 -37 -47 -5
0 -9 16 -9 35 0 28 4 35 20 35 11 0 20 -2 20 -4z m197 -82 c-3 -3 -12 -4 -20
-2 -11 2 -12 9 -5 28 l10 25 11 -23 c5 -12 8 -25 4 -28z"/>
<path d="M1445 1516 c-34 -34 -41 -71 -22 -112 20 -41 78 -62 129 -48 28 8 33
15 36 44 2 19 8 41 14 47 8 10 0 13 -36 13 -25 0 -46 -4 -46 -10 0 -5 7 -10
15 -10 21 0 20 -56 -1 -64 -25 -9 -33 -7 -54 14 -25 25 -27 91 -4 114 24 25
60 19 83 -11 l20 -28 1 38 0 37 -55 0 c-46 0 -60 -4 -80 -24z"/>
<path d="M1680 1465 c-18 -41 -39 -80 -46 -86 -23 -19 -16 -29 21 -29 33 0 48
14 23 22 -7 3 -9 12 -5 22 5 13 16 16 39 14 29 -3 33 -6 31 -30 -2 -26 1 -28
38 -28 41 0 49 9 25 29 -7 6 -26 45 -42 86 -16 41 -34 75 -40 75 -6 0 -26 -34
-44 -75z m47 -31 c-3 -3 -12 -4 -20 -2 -11 2 -12 9 -5 28 l10 25 11 -23 c5
-12 8 -25 4 -28z"/>
<path d="M1810 1515 c0 -27 15 -34 24 -10 3 8 12 15 21 15 12 0 15 -14 15 -75
0 -43 -4 -75 -10 -75 -5 0 -10 -4 -10 -10 0 -5 18 -10 39 -10 22 0 43 5 46 10
3 6 -1 10 -9 10 -13 0 -16 14 -16 75 0 63 3 75 16 75 9 0 23 -8 30 -17 12 -16
13 -15 14 10 l0 27 -80 0 c-79 0 -80 0 -80 -25z"/>
<path d="M2003 1526 c24 -18 26 -156 1 -156 -8 0 -12 -4 -9 -10 3 -5 24 -10
46 -10 21 0 39 5 39 10 0 6 -4 10 -10 10 -6 0 -10 32 -10 75 0 43 4 75 10 75
6 0 10 5 10 10 0 6 -21 10 -47 10 -42 -1 -46 -2 -30 -14z"/>
<path d="M2190 1530 c0 -5 5 -10 10 -10 6 0 10 -32 10 -75 0 -43 -4 -75 -10
-75 -5 0 -10 -4 -10 -10 0 -12 77 -13 84 -1 3 5 -1 11 -9 15 -8 3 -15 18 -15
33 l0 27 30 -29 c17 -17 26 -31 20 -33 -5 -2 -8 -8 -4 -13 6 -11 94 -12 94 -1
-1 4 -26 27 -56 51 l-55 44 32 34 c18 18 39 33 46 33 7 0 13 5 13 10 0 6 -18
10 -41 10 -34 0 -39 -3 -35 -17 3 -12 -4 -25 -19 -36 -25 -18 -25 -17 -25 4 0
12 8 28 18 35 15 12 11 13 -30 14 -27 0 -48 -4 -48 -10z"/>
<path d="M2400 1530 c0 -5 4 -10 9 -10 5 0 11 -30 13 -66 5 -75 27 -104 78
-104 51 0 73 29 78 104 2 36 8 66 13 66 5 0 9 5 9 10 0 6 -16 10 -35 10 -19 0
-35 -4 -35 -10 0 -5 5 -10 10 -10 6 0 10 -28 10 -65 0 -54 -3 -66 -20 -75 -47
-25 -70 5 -70 93 0 35 4 47 15 47 8 0 15 5 15 10 0 6 -20 10 -45 10 -25 0 -45
-4 -45 -10z"/>
<path d="M2610 1530 c0 -5 7 -10 15 -10 12 0 15 -14 15 -70 0 -54 -4 -72 -15
-76 -30 -12 -14 -24 30 -24 44 0 60 12 30 24 -16 6 -21 56 -6 56 5 0 22 -18
38 -40 21 -30 35 -40 56 -40 15 0 27 3 27 6 0 3 -16 21 -36 39 l-36 34 23 30
c21 29 21 31 5 55 -15 23 -23 26 -81 26 -37 0 -65 -4 -65 -10z m108 -34 c4
-18 -21 -46 -40 -46 -4 0 -8 16 -8 36 0 31 3 35 22 32 13 -2 24 -11 26 -22z"/>
<path d="M2800 1515 c0 -27 15 -34 24 -10 3 8 12 15 21 15 12 0 15 -14 15 -75
0 -43 -4 -75 -10 -75 -5 0 -10 -4 -10 -10 0 -5 18 -10 39 -10 22 0 43 5 46 10
3 6 -1 10 -9 10 -13 0 -16 14 -16 75 0 63 3 75 16 75 9 0 23 -8 30 -17 12 -16
13 -15 14 10 l0 27 -80 0 c-79 0 -80 0 -80 -25z"/>
<path d="M2993 1526 c24 -18 26 -156 1 -156 -8 0 -12 -4 -9 -10 3 -5 24 -10
46 -10 21 0 39 5 39 10 0 6 -4 10 -10 10 -6 0 -10 32 -10 75 0 43 4 75 10 75
6 0 10 5 10 10 0 6 -21 10 -47 10 -42 -1 -46 -2 -30 -14z"/>
<path d="M3090 1530 c0 -5 7 -10 15 -10 12 0 15 -14 15 -70 0 -54 -4 -72 -15
-76 -35 -14 -10 -24 60 -24 72 0 76 1 86 26 13 36 3 43 -21 16 -12 -12 -32
-22 -45 -22 -22 0 -25 4 -25 35 0 31 3 35 25 35 16 0 25 -6 25 -15 0 -8 5 -15
10 -15 6 0 10 17 10 38 0 21 5 43 10 48 6 6 8 18 4 27 -5 14 -20 17 -80 17
-43 0 -74 -4 -74 -10z m135 -20 c8 -13 -26 -50 -47 -50 -13 0 -18 8 -18 30 0
27 3 30 29 30 17 0 32 -4 36 -10z"/>
<path d="M3302 1528 c-25 -25 -13 -57 33 -90 44 -31 55 -51 35 -63 -17 -10
-49 5 -55 26 -10 30 -25 22 -25 -14 0 -32 1 -33 42 -34 95 -4 117 58 41 110
-47 31 -58 60 -20 55 12 -2 26 -13 32 -25 14 -33 25 -28 25 10 0 33 -1 34 -48
36 -26 0 -53 -4 -60 -11z"/>
<path d="M475 1130 c0 -50 3 -60 17 -60 14 0 16 6 12 33 l-5 32 19 -34 19 -35
17 30 17 29 -6 -27 c-5 -24 -2 -28 17 -28 21 0 23 4 23 60 0 49 -3 60 -16 60
-9 0 -22 -13 -29 -30 -7 -16 -16 -30 -20 -30 -4 0 -13 14 -20 30 -7 17 -20 30
-29 30 -13 0 -16 -11 -16 -60z"/>
<path d="M644 1138 c-10 -29 -20 -56 -22 -60 -2 -4 6 -8 18 -8 16 0 20 4 16
15 -4 10 1 15 14 15 11 0 20 -6 20 -14 0 -11 13 -15 49 -14 l49 0 -4 36 c-5
36 -5 36 11 17 9 -11 23 -29 31 -39 18 -26 21 -21 26 47 4 50 2 57 -13 57 -15
0 -17 -6 -13 -32 l6 -33 -27 33 c-25 30 -65 44 -65 22 0 -5 5 -10 10 -10 6 0
10 -18 10 -40 0 -58 -26 -53 -53 10 -11 28 -26 50 -32 50 -6 0 -20 -23 -31
-52z m36 -3 c0 -8 -4 -15 -10 -15 -5 0 -7 7 -4 15 4 8 8 15 10 15 2 0 4 -7 4
-15z"/>
<path d="M877 1143 c5 -48 23 -73 53 -73 26 0 40 22 40 62 0 28 4 38 16 38 14
0 16 -9 12 -50 -5 -47 -4 -50 18 -50 12 0 26 5 29 10 3 6 1 10 -4 10 -6 0 -11
7 -11 15 0 9 7 15 17 13 10 -2 19 5 21 15 3 15 0 18 -17 12 -16 -5 -21 -2 -21
10 0 13 6 16 25 13 17 -4 25 -1 25 8 0 11 -18 14 -70 14 -40 0 -70 -4 -70 -10
0 -5 5 -10 10 -10 15 0 12 -56 -5 -70 -24 -20 -38 -1 -32 46 4 40 3 44 -18 44
-21 0 -22 -3 -18 -47z"/>
<path d="M1104 1138 c-10 -29 -20 -56 -22 -60 -2 -4 6 -8 18 -8 16 0 20 4 16
15 -4 10 1 15 14 15 11 0 20 -7 20 -15 0 -9 10 -15 26 -15 14 0 24 3 22 8 -3
4 -15 31 -28 60 -13 28 -29 52 -35 52 -6 0 -20 -23 -31 -52z m36 -3 c0 -8 -4
-15 -10 -15 -5 0 -7 7 -4 15 4 8 8 15 10 15 2 0 4 -7 4 -15z"/>
<path d="M1220 1174 c-32 -37 -6 -104 40 -104 21 0 57 26 48 36 -4 4 -14 2
-21 -5 -23 -18 -47 -2 -47 30 0 37 24 48 50 24 19 -18 20 -17 20 8 0 25 -3 27
-39 27 -23 0 -44 -6 -51 -16z"/>
<path d="M1320 1168 c0 -17 3 -19 12 -10 21 21 28 13 28 -28 0 -22 -5 -40 -11
-40 -5 0 -7 -4 -4 -10 8 -13 55 -13 55 -1 0 6 -4 13 -10 16 -16 10 -12 75 4
75 8 0 17 -6 19 -12 3 -7 6 -3 6 10 1 20 -4 22 -49 22 -45 0 -50 -2 -50 -22z"/>
<path d="M1437 1143 c5 -48 23 -73 53 -73 26 0 40 22 40 62 0 31 4 38 20 38
16 0 20 -7 20 -34 0 -19 -4 -38 -10 -41 -18 -11 -10 -25 15 -25 22 0 25 3 20
28 l-6 27 20 -26 c18 -23 28 -27 85 -28 52 -1 65 2 70 16 4 10 2 19 -3 21 -6
2 -11 13 -11 24 0 15 -5 18 -20 13 -15 -5 -20 -2 -20 10 0 13 6 16 25 13 17
-4 25 -1 25 8 0 10 -13 14 -44 14 l-43 0 5 -50 c5 -54 -6 -64 -39 -34 -14 13
-15 20 -7 34 23 36 4 50 -67 50 -37 0 -65 -4 -65 -10 0 -5 5 -10 10 -10 15 0
12 -56 -5 -70 -24 -20 -38 -1 -32 46 4 40 3 44 -18 44 -21 0 -22 -3 -18 -47z
m173 18 c0 -6 -4 -13 -10 -16 -5 -3 -10 1 -10 9 0 9 5 16 10 16 6 0 10 -4 10
-9z m133 -56 c1 -5 -6 -11 -15 -13 -11 -2 -18 3 -18 13 0 17 30 18 33 0z"/>
<path d="M1785 1130 c0 -56 2 -60 23 -60 19 0 22 4 17 23 l-6 22 20 -22 c18
-22 51 -31 51 -15 0 4 -9 15 -20 25 -17 14 -18 20 -9 36 20 31 4 51 -38 51
l-38 0 0 -60z m55 31 c0 -6 -4 -13 -10 -16 -5 -3 -10 1 -10 9 0 9 5 16 10 16
6 0 10 -4 10 -9z"/>
<path d="M1912 1178 c-19 -19 -14 -35 15 -56 16 -11 25 -24 20 -28 -4 -4 -13
-2 -19 4 -17 17 -28 15 -28 -6 0 -26 58 -24 74 1 9 16 5 23 -24 48 -20 17 -28
29 -19 29 8 0 20 -5 27 -12 9 -9 12 -7 12 10 0 16 -6 22 -23 22 -13 0 -28 -5
-35 -12z"/>
<path d="M2059 1138 c-12 -29 -25 -57 -27 -61 -2 -5 6 -7 19 -5 13 2 23 9 22
16 -2 6 6 12 17 12 13 0 18 -5 14 -15 -5 -11 1 -15 20 -15 25 0 35 13 17 24
-4 3 -14 26 -21 51 -7 25 -18 45 -25 45 -7 0 -23 -24 -36 -52z m36 -8 c3 -5 1
-10 -4 -10 -6 0 -11 5 -11 10 0 6 2 10 4 10 3 0 8 -4 11 -10z"/>
<path d="M2150 1180 c0 -5 5 -10 11 -10 8 0 10 -17 7 -50 -4 -43 -3 -50 13
-50 10 0 21 5 24 10 3 6 1 10 -4 10 -6 0 -11 14 -11 32 l0 32 33 -44 32 -45 3
53 c2 39 7 52 19 52 13 0 15 -9 11 -50 l-5 -50 38 0 c67 0 104 64 61 103 -21
19 -152 25 -152 7 0 -5 5 -10 10 -10 6 0 10 -10 10 -22 -1 -22 -3 -21 -29 10
-26 30 -71 44 -71 22z m208 -22 c16 -16 15 -33 -4 -52 -25 -25 -34 -19 -34 24
0 41 14 52 38 28z"/>
<path d="M2459 1176 c6 -8 17 -33 24 -57 14 -49 32 -60 43 -27 l7 23 8 -23
c13 -34 25 -27 45 29 11 28 24 51 29 50 15 -1 18 -73 3 -82 -18 -11 16 -23 40
-14 11 5 13 9 5 12 -21 8 -15 33 8 33 18 0 20 -4 15 -25 -5 -21 -3 -25 16 -25
21 0 23 4 23 60 0 56 -2 60 -23 60 -19 0 -21 -4 -16 -25 5 -21 3 -25 -15 -25
-23 0 -28 19 -9 38 9 9 0 12 -41 12 -43 0 -52 -3 -47 -15 3 -8 1 -25 -3 -37
-9 -23 -9 -23 -16 4 -4 15 -4 32 0 37 4 7 -13 11 -51 11 -47 0 -55 -2 -45 -14z
m61 -33 c0 -22 -2 -25 -10 -13 -13 20 -13 40 0 40 6 0 10 -12 10 -27z"/>
<path d="M2757 1172 c-35 -38 -7 -102 44 -102 39 0 66 79 37 108 -18 18 -63
14 -81 -6z m61 -19 c10 -19 -1 -63 -16 -63 -24 0 -43 55 -25 73 12 13 32 7 41
-10z"/>
<path d="M2860 1180 c0 -5 5 -10 10 -10 6 0 10 -18 10 -40 0 -22 -4 -40 -10
-40 -5 0 -10 -4 -10 -10 0 -5 22 -10 49 -10 40 0 50 3 54 20 6 22 -3 26 -20 9
-21 -21 -43 -2 -43 36 0 19 5 35 10 35 6 0 10 5 10 10 0 6 -13 10 -30 10 -16
0 -30 -4 -30 -10z"/>
<path d="M2970 1180 c0 -5 5 -10 10 -10 6 0 10 -15 10 -34 0 -19 -4 -38 -10
-41 -23 -14 -7 -25 35 -25 34 0 47 4 52 17 4 9 1 19 -5 21 -7 2 -12 12 -12 22
0 13 -5 17 -20 13 -14 -4 -20 0 -20 12 0 13 6 16 25 13 17 -4 25 -1 25 8 0 10
-14 14 -45 14 -25 0 -45 -4 -45 -10z m78 -77 c2 -8 -5 -13 -17 -13 -12 0 -21
6 -21 16 0 18 31 15 38 -3z"/>
<path d="M3096 1171 c-17 -18 -16 -20 13 -42 32 -24 33 -46 0 -29 -16 9 -19 7
-19 -8 0 -15 7 -19 28 -17 38 3 39 3 46 22 5 12 -3 26 -26 45 -21 18 -27 28
-17 28 8 0 20 -5 27 -12 9 -9 12 -7 12 10 0 28 -40 30 -64 3z"/>
<path d="M3203 1140 c-12 -28 -23 -54 -25 -58 -2 -4 8 -9 21 -10 18 -3 22 0
18 12 -5 11 -1 16 13 16 11 0 19 -6 18 -12 -2 -10 17 -13 72 -13 67 0 75 2 78
20 3 16 1 18 -9 8 -7 -7 -21 -13 -31 -13 -14 0 -18 8 -18 40 0 22 5 40 10 40
6 0 10 5 10 10 0 6 -13 10 -30 10 -16 0 -30 -4 -30 -10 0 -5 5 -10 11 -10 18
0 6 -74 -12 -78 -12 -2 -22 11 -35 47 -10 28 -23 51 -29 51 -6 0 -21 -23 -32
-50z m37 -10 c0 -5 -5 -10 -11 -10 -5 0 -7 5 -4 10 3 6 8 10 11 10 2 0 4 -4 4
-10z"/>
<path d="M3415 1130 l0 -60 41 0 c30 0 44 5 49 17 3 10 1 19 -4 21 -6 2 -11
13 -11 24 0 15 -5 18 -20 13 -15 -5 -20 -2 -20 10 0 13 6 16 25 13 17 -4 25
-1 25 8 0 10 -13 14 -42 14 l-43 0 0 -60z m68 -25 c1 -5 -6 -11 -15 -13 -11
-2 -18 3 -18 13 0 17 30 18 33 0z"/>
<path d="M3525 1130 c0 -56 2 -60 23 -60 19 0 22 4 17 23 l-6 22 20 -22 c18
-22 51 -31 51 -15 0 4 -9 15 -20 25 -17 14 -18 20 -9 36 20 31 4 51 -38 51
l-38 0 0 -60z m55 31 c0 -6 -4 -13 -10 -16 -5 -3 -10 1 -10 9 0 9 5 16 10 16
6 0 10 -4 10 -9z"/>
<path d="M3652 1178 c-19 -19 -14 -35 15 -56 16 -11 25 -24 20 -28 -4 -4 -13
-2 -19 4 -17 17 -28 15 -28 -5 0 -21 47 -28 68 -11 20 17 14 48 -13 60 -14 6
-25 15 -25 20 0 12 14 10 28 -4 9 -9 12 -7 12 10 0 16 -6 22 -23 22 -13 0 -28
-5 -35 -12z"/>
</g>
</svg>
